<?xml version="1.0" encoding="utf-8"?>
<!-- Generator: Adobe Illustrator 23.0.6, SVG Export Plug-In . SVG Version: 6.00 Build 0)  -->
<svg version="1.1" id="Layer_1" xmlns="http://www.w3.org/2000/svg" xmlns:xlink="http://www.w3.org/1999/xlink" x="0px" y="0px"
	 viewBox="0 0 216 216" style="enable-background:new 0 0 216 216;" xml:space="preserve">
<style type="text/css">
	.st0{fill:#1D428A;}
	.st1{fill:#FFC72C;}
</style>
<g id="Artwork">
	<g>
		<g>
			<g>
				<g>
					<polygon class="st0" points="60.1,157 64.2,156.8 64.2,140.1 60.1,140.1 					"/>
					<rect x="60.2" y="84.7" class="st0" width="4" height="5.8"/>
					<path class="st0" d="M60.1,189.4c1.3,0.8,2.7,1.5,4.1,2.3v-21l8.6,2.9c0.4,8.4,0.8,16.1,1.3,22.5c10.5,4.1,22,6.3,33.9,6.3
						c26.7,0,50.8-11.1,68-28.9l-115.8-4L60.1,189.4z"/>
					<rect x="60.2" y="95.9" class="st0" width="4" height="5.8"/>
					<rect x="60.1" y="123.5" class="st0" width="4" height="11.2"/>
					<rect x="60.2" y="107.1" class="st0" width="4" height="10.9"/>
					<path class="st0" d="M40.2,157.6l12.4-47.5c0.2-10.8,0.3-20.8,0.3-29.1l-21.5,76.9L40.2,157.6z"/>
					<path class="st0" d="M15.2,125.5c1.1,5.9,2.8,11.6,4.9,17l9.3-31.4C23.6,118.2,18.7,122.7,15.2,125.5z"/>
					<path class="st0" d="M51,157.3c0.6-11.3,1-23.3,1.3-35l-9.2,35.2L51,157.3z"/>
					<path class="st0" d="M108,0C48.4,0,0,48.4,0,108s48.4,108,108,108s108-48.4,108-108S167.6,0,108,0z M108,208
						C52.8,208,8,163.2,8,108S52.8,8,108,8s100,44.8,100,100S163.2,208,108,208z"/>
					<path class="st0" d="M49.4,182.1c0.4-4,0.7-8.3,1-12.8l-14.7-0.5C39.7,173.6,44.4,178.1,49.4,182.1z"/>
					<path class="st0" d="M34.1,105.3l-12.3,41.4c1.8,3.9,3.8,7.7,6.1,11.4h0.6L50.4,80C44.6,90.3,39.1,98.7,34.1,105.3z"/>
					<rect x="60.2" y="75.7" class="st0" width="4" height="3.7"/>
					<path class="st0" d="M72.6,163.4l110.3,2.2c0.7-0.8,1.3-1.7,1.9-2.6l-112.2-0.6C72.6,162.7,72.6,163.1,72.6,163.4z"/>
					<path class="st0" d="M79.7,156.3l-8.9-31.7c0.4,10.6,0.8,21.5,1.2,32L79.7,156.3z"/>
					<path class="st0" d="M72.1,79l21.5,76.9l9.8-0.3L85.7,92.2C80.9,88,76.4,83.5,72.1,79z"/>
					<path class="st0" d="M108,13.5c-52.2,0-94.5,42.3-94.5,94.5c0,4.4,0.3,8.7,0.9,12.9C30.1,109.7,51,73.6,52.9,70.2
						c0-3.1-0.1-5.7-0.1-7.7l2.4-1.3v-2.4l5.1-1.2v6.7h4V58l4.7,1.1c0,0,0.1,4.1,0.3,11.1c0,0,0,0,0.1,0.1l0.1,0.1l0,0
						c28.5,35,88,64.7,124.8,76.3c5.3-11.8,8.3-24.9,8.3-38.7C202.5,55.8,160.2,13.5,108,13.5z"/>
					<path class="st0" d="M89.5,95.5l16.8,59.9l9.1-0.3l-14.1-50.3C97.3,101.8,93.4,98.7,89.5,95.5z"/>
					<path class="st0" d="M70.4,111.4l0.2,0.9c0,0.4,0,0.9,0,1.3l11.9,42.6l8.1-0.3L69.7,80.6v0.1L69.5,80
						C69.7,88.7,70,99.6,70.4,111.4z"/>
					<path class="st0" d="M180.8,153l9.6-0.3c-2.7-0.9-6.4-2.3-10.9-4.1L180.8,153z"/>
					<path class="st0" d="M105,107.5l13.3,47.5l9.3-0.3l-11-39.3C112.7,112.9,108.8,110.3,105,107.5z"/>
					<path class="st0" d="M177.9,153.1l-1.7-5.9c-3.4-1.5-7.3-3.1-11.4-5.1l3.2,11.3L177.9,153.1z"/>
					<path class="st0" d="M149.9,134.8l5.3,19.1l9.9-0.3l-3.6-13C157.8,138.8,153.9,136.9,149.9,134.8z"/>
					<path class="st0" d="M120.2,117.8l10.3,36.9l9-0.3l-8.4-29.9C127.5,122.3,123.8,120.1,120.2,117.8z"/>
					<path class="st0" d="M134.6,126.5l7.8,27.8l9.9-0.3l-5.9-20.9C142.6,131,138.6,128.8,134.6,126.5z"/>
				</g>
			</g>
			<g>
				<path class="st1" d="M108,8C52.8,8,8,52.8,8,108s44.8,100,100,100s100-44.8,100-100S163.2,8,108,8z M15.2,125.5
					c3.5-2.8,8.4-7.3,14.2-14.3l-9.3,31.4C17.9,137.1,16.3,131.4,15.2,125.5z M27.9,158c-2.3-3.6-4.3-7.4-6.1-11.4l12.3-41.4
					c5-6.6,10.5-15,16.2-25.4L28.5,158H27.9z M49.4,182.1c-5-4-9.6-8.5-13.8-13.4l14.7,0.5C50.1,173.7,49.7,178,49.4,182.1z
					 M51,157.3l-7.9,0.3l9.2-35.2C52,134,51.6,146,51,157.3z M52.6,110.2l-12.4,47.5l-8.7,0.3l21.4-77
					C52.9,89.4,52.8,99.4,52.6,110.2z M108,202.5c-12,0-23.4-2.2-33.9-6.3c-0.4-6.4-0.9-14.1-1.3-22.5l-8.6-2.9v21
					c-1.4-0.7-2.7-1.5-4.1-2.3v-19.9l115.8,4C158.8,191.4,134.7,202.5,108,202.5z M64.2,84.7v5.8h-4v-5.8H64.2z M60.2,79.3v-3.7h4
					v3.7H60.2z M64.2,95.9v5.8h-4v-5.8H64.2z M64.2,107.1V118h-4v-10.9H64.2z M64.2,123.5v11.2h-4.1v-11.2H64.2z M64.2,140.1v16.8
					l-4.1,0.1v-16.9L64.2,140.1L64.2,140.1z M69.7,80.6l21.1,75.3l-8.1,0.3l-11.9-42.6c0-0.4,0-0.9,0-1.3l-0.2-0.9
					C70,99.6,69.7,88.7,69.5,80L69.7,80.6L69.7,80.6z M165.1,153.5l-9.9,0.3l-5.3-19.1c4,2.1,7.9,4,11.6,5.8L165.1,153.5z
					 M164.8,142.1c4.1,1.9,7.9,3.6,11.4,5.1l1.7,5.9l-9.9,0.3L164.8,142.1z M152.3,153.9l-9.9,0.3l-7.8-27.8c4,2.3,8,4.5,11.8,6.5
					L152.3,153.9z M139.5,154.3l-9,0.3l-10.3-36.9c3.7,2.3,7.3,4.6,11,6.7L139.5,154.3z M127.6,154.7l-9.3,0.3L105,107.5
					c3.8,2.8,7.7,5.4,11.6,8L127.6,154.7z M115.4,155.1l-9.1,0.3L89.5,95.5c3.8,3.2,7.8,6.3,11.8,9.3L115.4,155.1z M103.4,155.5
					l-9.8,0.3L72.1,79c4.2,4.6,8.8,9,13.6,13.2L103.4,155.5z M79.7,156.3l-7.7,0.3c-0.4-10.4-0.8-21.4-1.2-32L79.7,156.3z
					 M182.9,165.6l-110.3-2.2c0-0.3,0-0.7,0-1.1l112.2,0.6C184.2,163.9,183.5,164.7,182.9,165.6z M180.8,153l-1.2-4.5
					c4.5,1.9,8.2,3.2,10.9,4.1L180.8,153z M69.4,70.4L69.4,70.4c0-0.1-0.1-0.1-0.1-0.2c0,0,0,0-0.1-0.1C69,63.2,68.9,59,68.9,59
					l-4.7-1v6.3h-4v-6.7l-5.1,1.2v2.4l-2.4,1.3c0.1,2,0.1,4.6,0.1,7.7c-1.9,3.3-22.8,39.4-38.5,50.6c-0.6-4.2-0.9-8.5-0.9-12.9
					c0-52.2,42.3-94.5,94.5-94.5s94.5,42.3,94.5,94.5c0,13.8-3,26.9-8.3,38.7C157.4,135.1,97.9,105.4,69.4,70.4z"/>
			</g>
		</g>
	</g>
</g>
</svg>
